<?xml version="1.0" encoding="utf-8"?>
<!-- Generator: Adobe Illustrator 26.0.3, SVG Export Plug-In . SVG Version: 6.00 Build 0)  -->
<svg version="1.1" id="Laag_1" xmlns="http://www.w3.org/2000/svg" xmlns:xlink="http://www.w3.org/1999/xlink" x="0px" y="0px"
	 viewBox="0 0 234 45" style="enable-background:new 0 0 234 45;" xml:space="preserve">
<style type="text/css">
	.st0{fill-rule:evenodd;clip-rule:evenodd;fill:#EBF6F8;}
</style>
<desc>Created with Sketch.</desc>
<g id="Page-1">
	<g id="LifeLines-1140px-16032401" transform="translate(-60.000000, -289.000000)">
		<g id="Group-17" transform="translate(60.000000, 289.000000)">
			<path id="Fill-15" class="st0" d="M205.3,27.3c-0.1,0.1-0.2,0.2-0.3,0.2c0.2-1.1,0.5-2.2,0.9-3.3c3.9-2.9,8.2-4.4,12.5-4.4
				c4.5,0,9,1.6,13,4.7c0.4,0.3,0.7,0.6,1.2,1c0.3,0.3,0.7,0.6,1.1,0.9c-0.2-1.2-0.6-2.4-1.1-3.5c0,0,0,0,0,0
				c-0.7-1.4-1.5-2.7-2.5-3.8l0,0l-0.3-0.3c-2.8-3-6.8-4.8-11.3-4.8s-8.4,1.9-11.3,4.8c3.6-2,7.4-3,11.3-3c0,0,0.3,0,0.4,0
				c3.7,0.1,7.2,1.9,9.6,4.6c-3.2-1.6-6.6-2.5-10.1-2.5c-5,0-9.8,1.8-14.1,5.1c-0.5,1.1-0.9,2.3-1.1,3.5c0,0,0,0,0,0c0,0,0,0,0,0
				c-0.2,0.9-0.3,1.8-0.3,2.7l0,0v0c0,0.1,0,0.2,0,0.4c0,0.7,0,1.3,0.1,2c1.5-1.1,2.6-2.1,3.5-2.8l0.2-0.2c3.6-3.1,7.6-4.7,11.7-4.7
				c4,0,8.1,1.6,11.7,4.7l0.2,0.2c0.5,0.4,1,0.9,1.7,1.4c0,0.8-0.1,1.6-0.3,2.4c-0.9-0.7-1.5-1.3-1.9-1.6c-3.4-3.4-7.4-5.1-11.4-5.1
				h0c-4,0-8,1.7-11.4,5.1c-0.5,0.5-1.6,1.5-3.6,2.8c0.2,0.6,0.4,1.3,0.6,1.9c0,0,0,0.1,0,0c0,0,0,0.1,0,0.1
				c0.3,0.7,0.5,1.1,0.9,1.7c0,0,0.1,0.1,0.1,0.1c0.3,0.6,0.7,1.1,1.1,1.6c1.8-1.1,3.1-2.2,3.8-3c2.7-3,5.5-4.6,8.4-4.6
				c2.9,0,5.7,1.5,8.4,4.6c0.5,0.6,1.2,1.2,2.2,1.9h0c-0.4,0.5-0.8,0.9-1.3,1.4c-0.2-0.2-0.4-0.4-0.6-0.6c-3-3.5-5.8-5.2-8.7-5.2
				c-2.9,0-5.8,1.6-8.7,5.2c-0.4,0.5-1.2,1.1-2.2,1.8c0.5,0.5,1,0.9,1.5,1.3c0.1,0.1,1,0.7,1.7,1.1c0.6,0.3,1.2,0.6,1.8,0.9
				c0.1-0.1,0.1-0.2,0.2-0.3c2.4-3,4.1-4.3,5.7-4.3c0,0,0,0,0,0c0,0,0,0,0,0c1.3,0,2.8,0.9,4.6,3c-0.6,0.2-1.3,0.4-1.9,0.5
				c-1-1-1.8-1.5-2.7-1.5c-1.3,0-2.4,1-4.2,3.1c0.7,0.2,1.4,0.3,2.1,0.4c0.9-1.1,1.6-1.8,2-1.8c0.4,0,1.1,0.7,2,1.8
				c0.7-0.1,1.4-0.2,2.1-0.4c0,0,0,0,0.1,0c0.6-0.2,1.1-0.4,1.7-0.6c0,0,0,0,0,0c0.6-0.3,1.2-0.5,1.8-0.9c-0.2-0.2-0.4-0.4-0.5-0.5
				c-2.8-3.5-4.9-5-7.2-5h0h0h0h0c-2.1,0-4,1.2-6.4,4c-0.5-0.3-1-0.6-1.4-0.9c0.2-0.2,0.4-0.4,0.6-0.6c2.6-3.1,4.9-4.5,7.2-4.5
				c2.3,0,4.7,1.5,7.2,4.5c0.5,0.6,1.2,1.2,2.2,1.9c0.5-0.4,1-0.8,1.5-1.3c0.1-0.1,0.8-0.8,1.2-1.3c0,0,0.1-0.2,0.1-0.2
				c0.4-0.5,0.8-1,1.1-1.6c-1.8-1.1-2.9-2.1-3.5-2.7c-3.1-3.5-6.4-5.2-9.9-5.2c-3.4,0-6.8,1.7-9.9,5.2c-0.4,0.4-1,0.9-1.8,1.6
				c-0.4-0.6-0.7-1.3-1-2c1.3-1,2.2-1.8,2.6-2.2c3.1-3.1,6.6-4.6,10-4.6c3.5,0,6.9,1.6,10,4.6c0.6,0.6,2,1.9,4.3,3.4
				c0.3-0.6,0.5-1.2,0.6-1.9c0,0,0,0,0,0c0.2-0.7,0.3-1.4,0.4-2.1h0l0,0c0.1-0.7,0.1-1.3,0.1-2c0-0.1,0-0.2,0-0.4
				c-1-0.7-1.7-1.4-2.4-1.9l-0.3-0.2c-3.9-3.4-8.4-5.1-12.9-5.1h0c-4.6,0-9,1.8-12.9,5.1L205.3,27.3z M181.9,23
				c0-1.9,1.9-2.8,3.9-2.8c2.7,0,4.1,1.3,4.6,2.9h7.8c-1-5.6-5.1-9.2-12.6-9.2c-6.6,0-11.8,3.8-11.8,9.6c0,5,3.2,7.3,7.7,8.4l6,1.3
				c2.1,0.5,3,1.2,3,2.5c0,1.9-1.7,2.9-4.2,2.9c-2.5,0-4.3-1.1-5-3.3h-8.2c0.9,6,6,9.5,13.2,9.5c6.9,0,12.1-3.6,12.1-9.6
				c0-4.5-2.7-7.4-7.9-8.6l-6.1-1.4C182.7,24.9,181.9,24.2,181.9,23L181.9,23z M149.7,31.3h19.8v-2.5c0-8.7-4.8-14.7-13.5-14.7
				c-8.3,0-14.3,6.6-14.3,15.5c0,9.2,5.8,15.5,14.4,15.5c7.1,0,11.6-3.7,13-9.5h-7.8c-0.9,1.9-2.8,2.9-5.2,2.9
				C152.4,38.4,149.9,35.7,149.7,31.3L149.7,31.3z M149.9,26.3c0.7-3.6,3-5.6,6.2-5.6c3.4,0,5.2,2.5,5.3,5.6H149.9z M129,44.3h8.2
				V25c0-6.6-3.8-10.9-10.5-10.9c-3.4,0-6.4,1.5-8,3.4v-2.7h-8.2v29.7h8.2V25.6c0.7-2.6,2.9-4.1,5.4-4.1c3.3,0,4.8,2.1,4.8,5.2V44.3
				z M104.5,5.9c0-2.7-2.3-4.7-4.8-4.7c-2.7,0-4.9,2-4.9,4.7c0,2.8,2.3,4.7,4.9,4.7C102.3,10.6,104.5,8.7,104.5,5.9L104.5,5.9z
				 M80.5,44.3h8.2V1.2h-8.2V44.3z M55.6,31.3h19.8v-2.5C75.4,20.1,70.6,14,62,14c-8.3,0-14.3,6.6-14.3,15.5
				c0,9.2,5.8,15.5,14.4,15.5c7.1,0,11.6-3.7,13-9.5h-7.8c-0.9,1.9-2.8,2.9-5.2,2.9C58.4,38.4,55.9,35.7,55.6,31.3L55.6,31.3z
				 M55.8,26.3c0.7-3.6,3-5.6,6.2-5.6c3.4,0,5.2,2.5,5.3,5.6H55.8z M44.9,7.6c0.9,0,1.9,0.2,2.8,0.7V1.4c-1.2-0.5-2.6-0.7-4.4-0.7
				c-6.3,0-10.5,3.8-10.5,10.5v3.5h-4.8v6.6h4.8v23h8.1v-23h6v-6.6h-6v-3C40.9,9,42.4,7.6,44.9,7.6L44.9,7.6z M24,5.9
				c0-2.7-2.3-4.7-4.8-4.7c-2.7,0-4.9,2-4.9,4.7c0,2.8,2.3,4.7,4.9,4.7C21.8,10.6,24,8.7,24,5.9L24,5.9z M0,44.3h8.2V1.2H0V44.3z
				 M15,44.3h8.2V14.7H15V44.3z M95.5,44.3h8.2V14.7h-8.2V44.3z"/>
		</g>
	</g>
</g>
</svg>
