<svg width="189.47" height="51.08" xmlns="http://www.w3.org/2000/svg">

 <g>
  <title>Layer 1</title>
  <path id="svg_1" fill="#005555" d="m0,11l9.72,0l6.39,17.5c0.79,2.33 1.48,4.85 2.27,7.28l0.24,0c0.79,-2.43 1.46,-4.95 2.25,-7.28l6.2,-17.5l9.72,0l0,39.4l-8.12,0l0,-14.51c0,-3.85 0.72,-9.58 1.14,-13.39l-0.24,0l-3.24,9.32l-5.57,15.1l-4.94,0l-5.58,-15.1l-3.15,-9.32l-0.24,0c0.42,3.81 1.15,9.5 1.15,13.39l0,14.46l-8,0l0,-39.35z" class="secondary"/>
  <path id="svg_2" fill="#005555" d="m44,42c0,-6.32 5,-9.74 16.89,-11c-0.18,-2.63 -1.49,-4.34 -4.74,-4.34c-2.52,0 -5,1.06 -7.94,2.71l-3.21,-5.79a24.44,24.44 0 0 1 12.81,-3.95c7.67,0 11.92,4.38 11.92,13.57l0,17.15l-7.25,0l-0.65,-3.07l-0.22,0c-2.52,2.22 -5.35,3.8 -8.72,3.8c-5.47,-0.01 -8.89,-4 -8.89,-9.08zm16.89,-0.4l0,-5.21c-6.32,0.85 -8.38,2.66 -8.38,4.93c0,1.93 1.33,2.88 3.44,2.88s3.36,-1 4.94,-2.57l0,-0.03zm16.3,-21.25l8.89,0l0,30l-8.89,0l0,-30z" class="primary"/>
  <path id="svg_3" fill="#005555" d="m108,41l0,-33l8.89,0l0,33.4c0,1.91 0.88,2.51 1.61,2.51a3.29,3.29 0 0 0 1.08,-0.12l1.07,6.56a11.55,11.55 0 0 1 -4.47,0.74c-6.08,-0.01 -8.18,-3.99 -8.18,-10.09zm33.82,-20.3l4.49,-0.35l13.79,0l0,7l-18.28,0l0,-6.65zm4,-1.9c0,-6.33 2.94,-11.54 11,-11.54a17.7,17.7 0 0 1 6,1.07l-1.6,6.55a8.73,8.73 0 0 0 -3.11,-0.64c-2.17,0 -3.42,1.19 -3.42,4.3l0,31.81l-8.89,0l0.02,-31.55zm16.72,16.56c0,-9.73 7,-15.73 14.15,-15.73c8.55,0 12.78,6.21 12.78,14.4a20.76,20.76 0 0 1 -0.37,3.97l-17.95,0c0.8,4.35 3.78,6.34 7.78,6.34a12.46,12.46 0 0 0 6.49,-2l2.94,5.36a19.55,19.55 0 0 1 -10.64,3.38c-8.55,-0.01 -15.18,-5.79 -15.18,-15.72zm19.34,-3.28c0,-3.3 -1.44,-5.68 -5,-5.68c-2.81,0 -5.23,1.89 -5.84,5.68l10.84,0z" class="secondary"/>
  <rect id="svg_4" fill="#005555" rx="0.89" height="4.57" width="12.85" y="42.14" x="90.9" class="secondary"/>
  <rect id="svg_5" fill="#005555" rx="0.89" height="12.85" width="4.82" y="38" x="94.91" class="secondary"/>
  <path id="svg_6" fill="#005555" d="m127.37,20.36l6.21,0a1.34,1.34 0 0 1 1.34,1.33l0,27.31a1.34,1.34 0 0 1 -1.34,1.34l-6.21,0a1.34,1.34 0 0 1 -1.37,-1.34l0,-27.3a1.34,1.34 0 0 1 1.34,-1.34l0.03,0zm8.48,-7.54a5.38,5.38 0 1 1 -5.38,-5.38a5.38,5.38 0 0 1 5.38,5.38z" class="primary"/>
  <path id="svg_7" fill="#005555" d="m125.54,20.36l9.86,0a1.63,1.63 0 0 1 1.6,1.64l0,13.67a1.63,1.63 0 0 1 -1.63,1.63l-9.86,0a1.63,1.63 0 0 1 -1.63,-1.63l0,-13.67a1.63,1.63 0 0 1 1.66,-1.64zm-38.54,-7.54a5.38,5.38 0 1 1 -5.38,-5.38a5.38,5.38 0 0 1 5.38,5.38z" class="primary"/>
  <path id="svg_8" fill="#005555" d="m87.72,7.35a7.8,7.8 0 0 0 -11,-1.19a7.94,7.94 0 0 0 -1.2,1.19a2.22,2.22 0 0 1 -3.42,-2.78a12.23,12.23 0 0 1 17.19,-1.88a11.94,11.94 0 0 1 1.88,1.88a2.22,2.22 0 0 1 -3.45,2.78z" class="primary"/>
 </g>
</svg>